<?xml version="1.0" encoding="UTF-8"?><svg id="a" xmlns="http://www.w3.org/2000/svg" viewBox="0 0 224.7 138.09"><defs><style>.b{fill:#fff;}</style></defs><path d="M118.83,89.25c-2.97,8.31,9.16,41.66,2.29,47.65-6.04,5.26-28.84-8.78-43.73-7.42-.3,.03-1.32,.13-2.85,.25-3.63,.3-9.91,.7-17.66,.67-2.99-.01-6.33-.15-10.25-.51-6.97-.63-11.94-1.11-18.33-3.17-6.57-2.11-16-5.14-21.95-12.51-.37-.46-1.87-2.44-3.25-5.31-4.38-9.1-3.53-18.91-.97-31.35,1.52-7.41,4.52-19.27,11.75-38.42C22.68,15.79,26.52,11.84,30.12,9.24c7.1-5.14,15.54-6.66,23-8C60.93-.17,66.93-.06,73.45,.07c5.93,.11,14.24,.32,24.5,3,6.61,1.72,10.62,3.58,11.8,4.15,3.39,1.61,8.16,3.88,11.86,7.52,8.19,8.05,8.39,20.05,8.5,26.5,.1,5.94-1.27,11.63-9.6,43.04-.74,2.81-1.61,4.76-1.69,4.98Z"/><path class="b" d="M73.63,42.99c6.09,0,9.77,5.69,7.62,11.78h18.11c5.68-16.09-2.77-29.14-18.86-29.14l-30.55,.6c-3.41,8.37-6.8,16.87-10.17,25.5-1.46,3.76-3.55,9.22-7.72,20.15-2.84,7.46-4.27,11.29-4.28,16.35,0,3.85,.71,6.99,1.32,9.05,.79,1.49,3.19,5.5,8.18,7.95,3.88,1.9,7.44,1.93,9.17,1.83,6.06,.65,23.98-.41,36.05-4.1,4.32-12.39,8.65-24.78,12.97-37.17h-31.81c.8,.27,6.35,2.24,8.68,8.19,2.69,6.87-1.36,12.85-1.68,13.31-7.71,.18-15.43,.37-23.14,.55,2.66-7.18,4.65-14.87,7.31-22.05,2.53-7.52,5.47-15.49,8-23l10.79,.19Z"/></svg>