<?xml version="1.0" encoding="UTF-8"?><svg id="a" xmlns="http://www.w3.org/2000/svg" viewBox="0 0 124.88 88.84"><path d="M42.51,25.86c6.09,0,9.77,5.69,7.62,11.78h18.11c5.68-16.09-2.77-29.14-18.86-29.14H20.24L2.19,59.69c-3.71,7.51-2.63,16.42,2.67,22.48,7.11,8.13,17.86,6.6,18.53,6.49,9.33-.94,18.67-1.88,28-2.82,4.32-12.39,8.65-24.78,12.97-37.17h-31.81c.8,.27,6.35,2.24,8.68,8.19,2.69,6.87-1.36,12.85-1.68,13.31-7.71,.18-15.43,.37-23.14,.55,2.66-7.18,4.65-14.87,7.31-22.05,2.53-7.52,5.47-15.49,8-23l10.79,.19Z"/></svg>